<svg xmlns="http://www.w3.org/2000/svg" version="1.0" width="768.000000pt" height="768.000000pt" viewBox="0 0 768.000000 768.000000" preserveAspectRatio="xMidYMid meet">

<g transform="translate(0.000000,768.000000) scale(0.100000,-0.100000)" fill="#808080" stroke="none">
<path d="M3585 7670 c-872 -69 -1540 -351 -2050 -864 -570 -575 -892 -1365 -992 -2436 -23 -256 -23 -804 0 -1060 63 -674 201 -1193 444 -1673 334 -658 847 -1130 1511 -1391 563 -222 1290 -298 1977 -206 667 89 1190 331 1635 756 381 365 601 775 675 1259 37 234 20 556 -41 796 -139 555 -510 993 -1066 1259 l-115 55 -7 80 c-87 978 -593 1547 -1455 1635 -515 52 -988 -87 -1342 -393 -106 -92 -283 -306 -267 -322 2 -3 125 -88 273 -189 l268 -183 57 71 c177 219 420 331 745 343 508 19 824 -170 969 -578 36 -101 72 -247 63 -256 -3 -3 -59 2 -124 11 -346 46 -786 46 -1063 0 -682 -113 -1138 -489 -1256 -1034 -26 -117 -26 -380 0 -498 50 -232 148 -420 303 -583 355 -372 943 -528 1535 -408 677 136 1114 646 1253 1459 9 52 18 96 20 98 9 9 165 -109 242 -182 110 -104 173 -188 239 -321 80 -163 114 -305 121 -505 8 -245 -30 -433 -128 -640 -131 -274 -364 -530 -659 -722 -360 -235 -787 -350 -1365 -365 -914 -24 -1645 255 -2106 805 -314 375 -523 871 -623 1482 -109 661 -87 1428 60 2038 45 190 76 289 140 454 363 936 1071 1439 2149 1529 174 14 544 6 715 -16 625 -80 1119 -304 1496 -680 274 -274 507 -680 634 -1108 17 -55 31 -102 33 -103 2 -1 207 53 560 147 60 17 77 25 77 39 0 31 -96 318 -151 451 -109 267 -267 548 -424 754 -522 687 -1249 1076 -2210 1180 -168 19 -597 27 -750 15z m900 -3940 c113 -10 349 -44 388 -56 16 -5 17 -13 12 -62 -67 -606 -275 -945 -650 -1061 -159 -50 -388 -64 -560 -36 -313 51 -539 223 -596 455 -20 82 -16 193 9 275 81 268 370 442 800 484 126 12 458 12 597 1z" fill="#808080"/>
</g>
</svg>